<?xml version="1.0" standalone="no"?>
<!DOCTYPE svg PUBLIC "-//W3C//DTD SVG 20010904//EN"
 "http://www.w3.org/TR/2001/REC-SVG-20010904/DTD/svg10.dtd">
<svg version="1.0" xmlns="http://www.w3.org/2000/svg"
 width="200.000000pt" height="200.000000pt" viewBox="0 0 200.000000 200.000000"
 preserveAspectRatio="xMidYMid meet">
<metadata>
Created by potrace 1.16, written by Peter Selinger 2001-2019
</metadata>
<g transform="translate(0.000000,200.000000) scale(0.100000,-0.100000)"
fill="#000000" stroke="none">
<path d="M740 1378 c-33 -17 -51 -35 -67 -68 -32 -61 -30 -87 12 -235 6 -18
-1 -22 -56 -34 -71 -14 -121 -37 -168 -76 -31 -27 -40 -45 -21 -45 6 0 34 15
63 34 81 54 97 55 138 8 19 -21 47 -55 62 -76 24 -30 34 -36 67 -36 71 0 89
20 50 55 -11 10 -20 24 -20 32 0 7 -6 13 -12 13 -7 0 -5 5 5 11 23 13 22 25
-3 32 -20 5 -28 27 -10 27 6 0 10 5 10 10 0 6 -10 10 -21 10 -20 0 -21 4 -15
50 4 32 2 56 -5 68 -27 42 20 69 88 50 28 -8 38 -18 51 -49 18 -46 29 -50 34
-11 2 15 8 26 16 25 17 -4 16 71 -3 135 -9 30 -26 59 -42 71 -35 28 -97 27
-153 -1z"/>
<path d="M1887 1143 c-4 -6 -33 -78 -65 -160 -31 -81 -64 -157 -72 -169 -23
-33 -54 -44 -117 -44 -37 0 -67 -6 -81 -16 -34 -24 -27 -37 16 -29 20 3 62 9
92 12 40 4 65 13 91 34 32 25 43 48 94 188 31 88 55 168 53 178 -2 12 -6 14
-11 6z"/>
<path d="M108 974 c-12 -12 -10 -206 2 -199 6 3 10 22 10 41 0 19 5 34 11 34
7 0 10 -17 7 -45 -3 -38 -1 -44 14 -39 9 2 19 0 23 -6 3 -5 13 -10 21 -10 11
0 14 16 14 75 0 68 -2 75 -20 75 -20 0 -28 -25 -11 -32 5 -1 3 -9 -5 -16 -12
-11 -14 -3 -14 53 0 42 -4 64 -10 60 -5 -3 -10 -22 -10 -41 0 -51 -18 -41 -22
12 -2 25 -6 42 -10 38z"/>
<path d="M1378 964 c-5 -4 -8 -26 -9 -48 0 -23 -3 -35 -6 -28 -7 17 -30 15
-37 -4 -9 -23 -8 -27 9 -20 22 8 18 -7 -5 -22 -17 -10 -20 -10 -20 3 0 8 -7
15 -15 15 -9 0 -15 9 -14 23 0 21 1 21 9 2 7 -18 8 -19 15 -2 10 24 -2 49 -22
45 -14 -2 -19 -15 -21 -56 -3 -47 -1 -52 17 -52 16 0 21 -6 21 -24 0 -14 -4
-28 -10 -31 -5 -3 -10 3 -10 14 0 12 -4 21 -10 21 -5 0 -10 -16 -10 -35 0 -30
3 -35 24 -35 13 0 26 6 29 14 3 9 15 12 31 9 26 -5 26 -4 28 58 l2 64 3 -53
c4 -48 6 -53 26 -50 13 2 24 13 28 28 7 24 7 25 8 2 1 -13 5 -21 10 -17 6 3 7
27 4 54 -3 28 -1 56 5 67 9 15 11 7 12 -43 0 -34 5 -65 10 -68 6 -4 10 23 10
75 0 80 0 81 -22 74 -13 -3 -23 -7 -24 -8 -1 0 -6 -10 -12 -21 -6 -11 -12 -14
-12 -7 0 6 -6 12 -14 12 -8 0 -16 12 -18 26 -2 14 -6 22 -10 18z"/>
<path d="M1078 874 c-5 -4 -8 -17 -8 -29 0 -26 -35 -62 -45 -45 -3 5 -11 8
-16 5 -5 -4 -9 8 -9 26 0 37 -16 29 -23 -11 -4 -24 -4 -24 -6 3 -1 34 -21 36
-21 1 0 -17 -6 -28 -20 -31 -18 -5 -20 -14 -20 -80 0 -47 4 -72 10 -68 6 3 10
31 10 61 0 30 5 54 10 54 6 0 10 -27 10 -61 0 -37 4 -58 10 -54 6 3 10 33 10
66 0 38 4 58 10 54 6 -3 10 -32 10 -63 0 -71 17 -58 23 18 l3 55 2 -63 c1 -39
6 -61 12 -57 6 3 11 16 11 28 1 17 2 18 6 5 5 -19 43 -26 43 -8 0 5 13 7 30 4
l30 -6 2 58 c2 57 2 57 5 12 3 -34 8 -48 19 -48 7 0 14 -4 14 -10 0 -5 -4 -10
-10 -10 -5 0 -10 -9 -10 -20 0 -22 1 -23 24 -14 13 5 16 23 15 93 0 47 -4 95
-9 106 -10 24 -12 15 -12 -65 l0 -55 -12 65 c-9 43 -15 59 -20 49 -5 -11 -15
-15 -27 -12 -14 4 -19 0 -19 -16 0 -15 4 -20 13 -15 6 4 4 -2 -5 -13 -10 -11
-19 -28 -20 -39 -1 -10 -4 16 -7 59 -3 44 -9 75 -13 71z"/>
<path d="M280 786 c0 -46 -3 -91 -6 -100 -3 -9 -1 -16 5 -16 6 0 13 10 16 23
7 28 45 56 45 33 0 -8 6 -17 13 -20 10 -5 10 -7 0 -12 -20 -9 -15 -34 6 -34
14 0 20 10 25 46 10 72 7 156 -4 149 -5 -3 -10 -28 -10 -56 0 -27 -4 -49 -8
-49 -5 0 -6 28 -4 63 5 73 -14 70 -21 -3 l-4 -45 -1 53 c-2 48 -4 52 -27 52
-25 0 -25 -1 -25 -84z"/>
</g>
</svg>
